<svg xmlns="http://www.w3.org/2000/svg" width="128px" height="128px" viewBox="0 0 128 128"><linearGradient id="a" x1="16.98286657496" x2="113.51232281881" y1="91.79046347784" y2="91.79046347784" gradientUnits="userSpaceOnUse"><stop offset="0" stop-color="#e6f0fc"/><stop offset="0.0383542" stop-color="#cadff8" stop-opacity="0.996078"/><stop offset="0.124655" stop-color="#d4e5f9" stop-opacity="0.992157"/><stop offset="0.901364" stop-color="#b2d0f4" stop-opacity="0.964706"/><stop offset="0.9589" stop-color="#d0e3f9" stop-opacity="0.964706"/><stop offset="1" stop-color="#98c1f1" stop-opacity="0.964706"/></linearGradient><linearGradient id="b" x1="35.05556157496" x2="88.56691281881" y1="91.79046347784" y2="91.79046347784" gradientUnits="userSpaceOnUse"><stop offset="0" stop-color="#e6f0fc"/><stop offset="0.230125" stop-color="#cadff8" stop-opacity="0.996078"/><stop offset="0.383542" stop-color="#d4e5f9" stop-opacity="0.992157"/><stop offset="0.588996" stop-color="#b2d0f4" stop-opacity="0.964706"/><stop offset="0.753397" stop-color="#d0e3f9" stop-opacity="0.964706"/><stop offset="1" stop-color="#98c1f1" stop-opacity="0.964706"/></linearGradient><path fill="url(#a)" d="M65.007812 67.363281C40.75 67.390625 20.304688 84.320312 15.109375 107.210938c-1.597656 5.96875 1.65625 9.007812 5.269531 9.007812h88.402344c4.75 0 7.4375-4.191406 6.222656-8.734375-5.097656-23.042969-25.625-40.109375-49.996094-40.121094m0 0"/><path fill="url(#b)" d="M89.351562 33.375c0 14.257812-11.554687 25.8125-25.8125 25.8125-14.257812 0-25.816406-11.554688-25.816406-25.8125S49.28125 7.558594 63.539062 7.558594s25.8125 11.558594 25.8125 25.816406m0 0"/><path fill="#f6f9fe" fill-opacity="0.996078" d="M65.007812 64.082031c-24.257812.03125-44.703124 16.074219-49.898437 38.96875-1.597656 5.96875 1.65625 9.007813 5.269531 9.007813h88.402344c4.75 0 7.4375-4.191406 6.222656-8.734375-5.097656-23.042969-25.625-39.226563-49.996094-39.242188m24.34375-34.046875c0 14.257813-11.554687 25.8125-25.8125 25.8125-14.257812 0-25.816406-11.554687-25.816406-25.8125 0-14.257812 11.558594-25.816406 25.816406-25.816406s25.8125 11.558594 25.8125 25.816406m0 0"/></svg>