<svg width="128px" height="128px" viewBox="0 0 128 128" xmlns="http://www.w3.org/2000/svg"><path d="m16 27.9297h96c4.43359 0 8 3.57031 8 8v50.0703l-30 30h-74c-4.43359 0-8-3.56641-8-8v-72.0703c0-4.42969 3.56641-8 8-8" fill="#f6f5f4"/><path d="m48.7109 97.9648h34.5781c5.91406 0 10.7109-4.79297 10.7109-10.7109v-34.5781c0-5.91406-4.79688-10.7109-10.7109-10.7109h-34.5781c-5.91406 0-10.7109 4.79688-10.7109 10.7109v34.5781c0 5.91797 4.79688 10.7109 10.7109 10.7109zm0 0" fill="none" stroke="#3584e4" stroke-linecap="round" stroke-width="4"/><path d="m120 86.125h-22c-4.43359 0-8 3.57031-8 8v21.875z" fill="#deddda"/><g fill="none"><path d="m83 46v51" stroke="#99c1f1" stroke-dasharray="2 2" stroke-width="2"/><path d="m49 46v51" stroke="#99c1f1" stroke-dasharray="2 2" stroke-width="2"/><path d="m48.4531 66h35.0938c5.77344 0 10.4531-4.67969 10.4531-10.4531v-3.125c0-5.77734-4.67969-10.457-10.4531-10.457h-35.0938c-5.77344 0-10.4531 4.67969-10.4531 10.457v3.125c0 5.77344 4.67969 10.4531 10.4531 10.4531z" stroke="#3584e4" stroke-dasharray="4 4" stroke-dashoffset="4.4" stroke-width="4"/><path d="m91.9414 77.6875c-1.50391-1.69141-3.69531-2.75781-6.14453-2.75781h-39.5938c-2.51172 0-4.75 1.11719-6.25391 2.88672" stroke="#99c1f1" stroke-dasharray="2 2" stroke-dashoffset="2.2" stroke-width="2"/></g></svg>
