<svg width="128px" height="128px" viewBox="0 0 128 128" xmlns="http://www.w3.org/2000/svg"><linearGradient id="b" x1="48" x2="464" y1="204" y2="204" gradientTransform="matrix(.211538 0 0 .25 9.84616 57)" gradientUnits="userSpaceOnUse"><stop stop-color="#3d3846" offset="0"/><stop stop-color="#5e5c64" offset=".0454544"/><stop stop-color="#3d3846" offset=".090909"/><stop stop-color="#3d3846" offset=".909091"/><stop stop-color="#5e5c64" offset=".954545"/><stop stop-color="#3d3846" offset="1"/></linearGradient><filter id="a" x="0%" y="0%" width="100%" height="100%"><feColorMatrix in="SourceGraphic" values="0 0 0 0 1 0 0 0 0 1 0 0 0 0 1 0 0 0 1 0"/></filter><mask id="e"><g filter="url(#a)"><rect width="128" height="128" fill-opacity=".5"/></g></mask><clipPath id="d"><rect width="192" height="152"/></clipPath><path d="m28 36h72c4.41797 0 8 3.58203 8 8v68c0 4.41797-3.58203 8-8 8h-72c-4.41797 0-8-3.58203-8-8v-68c0-4.41797 3.58203-8 8-8" fill="url(#b)"/><path d="m28 8h72c4.41797 0 8 3.58203 8 8v92c0 4.41797-3.58203 8-8 8h-72c-4.41797 0-8-3.58203-8-8v-92c0-4.41797 3.58203-8 8-8" fill="#5e5c64"/><path d="m32 16h64c2.21094 0 4 1.78906 4 4v80c0 2.21094-1.78906 4-4 4h-64c-2.21094 0-4-1.78906-4-4v-80c0-2.21094 1.78906-4 4-4" fill="#deddda"/><path d="M30 78v22c0 1.109375.890625 2 2 2h64c1.109375 0 1.933594-.894531 2-2V82s-10-6-28.785156-5.59375C56.011719 76.695312 44 88 30 78m0 0" fill="#c0bfbc"/><path d="m32 14c-2.21484 0-4 1.78516-4 4v2c0-2.21484 1.78516-4 4-4h64c2.21484 0 4 1.78516 4 4v-2c0-2.21484-1.78516-4-4-4z" fill="#3d3846"/><g fill="#c0bfbc"><path d="m75.2188 42.5938c-0.5625 5.21875-5.25391 8.99609-10.4727 8.42969-5.22266-0.5625-9-5.25-8.43359-10.4727 0.5625-5.22266 5.25391-8.99609 10.4727-8.43359 5.22266 0.5625 8.99609 5.25391 8.43359 10.4766"/><path d="m67.933594 51.933594-.378906 2.570312c.015624.570313-.070313 1.128906-.246094 1.679688-.996094.214844-1.949219.234375-2.878906.140625-.324219-.601563-.328126-1.203125-.339844-1.800781l-.558594-2.921876.328125.148438.488281 2.761719c1.050782-.082031 1.859375-.082031 2.964844-.0625l.347656-2.441407zm0 0"/><path d="m67.9258 52.0273c-1.46875 0.195312-2.91016 0.125-4.32422-0.195313-0.585937-0.832031-1.37109-1.35156-2.32812-1.88281l4.34766-0.796875 4.69922 0.773437c-1.44141 0.871094-2.06641 1.24609-2.39453 2.10156"/><path d="M66.054688 53.296875c.023437.25-.164063.46875-.414063.488281-.246094.023438-.46875-.160156-.488281-.410156-.023438-.25.164062-.46875.414062-.492188.246094-.019531.46875.164063.488282.414063m0 0"/><path d="M65.644531 53.851562c.382813-.035156.722657.25.757813.636719.03125.382813-.253906.722657-.640625.757813-.382813.03125-.722657-.253906-.753907-.640625-.035156-.382813.25-.722657.636719-.753907m0 0"/><path d="m65.117188 53.394531-.410157.140625.234375.019532-.140625.140624L65 53.640625l-.097656.226563.28125-.296876-.042969-.074218zm0 0"/><path d="m66.097656 53.3125.429688.066406-.230469.058594.164063.113281-.207032-.015625.136719.203125-.328125-.246093.03125-.078126zm0 0"/><path d="m96.8203 52.8867c-0.226562 3.57812-3.3125 6.29297-6.89062 6.06641-3.57422-0.226563-6.29297-3.30859-6.06641-6.88672s3.30859-6.29297 6.88672-6.07031c3.57812 0.226562 6.29688 3.3125 6.07031 6.89062"/><path d="m92.132812 59.476562-.179687 1.765626c.027344.386718-.015625.769531-.117187 1.152343-.671876.175781-1.320313.21875-1.957032.183594-.242187-.402344-.261718-.808594-.289062-1.21875l-.46875-1.976563.445312.070313.417969 1.867187c.714844-.085937.867187-.066406 1.621094-.089843l.164062-1.675781zm0 0"/><path d="m92.1328 59.5391c-0.996093 0.179688-1.98047 0.175782-2.95703 0-0.425781-0.550781-0.976562-0.882812-1.64453-1.21484l2.94141-0.675781 3.22656 0.386718c-0.957031 0.636719-1.36719 0.914063-1.56641 1.50391"/><path d="M91.015625 61.253906c.035156.324219-.046875.601563-.1875.617188s-.28125-.238282-.316406-.5625.046875-.597656.1875-.613282c.140625-.015624.28125.234376.316406.558594m0 0"/><path d="m51.4258 55.5625c-0.308593 2.91797-2.92578 5.03125-5.84375 4.71875s-5.03125-2.92969-4.71875-5.84766c0.308594-2.91797 2.92578-5.02734 5.84375-4.71875 2.91797 0.3125 5.03125 2.92969 4.71875 5.84766"/><path d="m47.363281 60.785156-.210937 1.4375c.007812.316406-.039063.628906-.136719.9375-.554687.121094-1.085937.132813-1.605469.082032-.183594-.335938-.183594-.671876-.195312-1.007813l-.3125-1.632813.320312.074219.273438 1.539063c.589844-.046875.800781-.019532 1.417968-.011719l.191407-1.363281zm0 0"/><path d="M47.359375 60.835938c-.820313.113281-1.625.074218-2.417969-.101563-.328125-.464844-.765625-.757813-1.300781-1.054687l2.429687-.445313 2.625.429687c-.804687.488282-1.152343.699219-1.335937 1.171876m0 0"/><path d="M46.386719 62.199219c.019531.269531-.0625.488281-.175781.496093-.113282.007813-.222657-.199218-.238282-.46875-.019531-.265624.058594-.488281.175782-.496093.113281-.003907.222656.203125.238281.46875m0 0"/></g><g transform="translate(-8 -16)" clip-path="url(#d)" mask="url(#e)"><path d="m64 124h16c1.10547 0 2 0.894531 2 2s-0.894531 2-2 2h-16c-1.10547 0-2-0.894531-2-2s0.894531-2 2-2" fill="#3d3846"/></g></svg>
